<?xml version="1.0" encoding="UTF-8"?>
<svg width="200" height="200" viewBox="0 0 200 200" fill="none" xmlns="http://www.w3.org/2000/svg">
    <rect width="200" height="200" rx="30" fill="#FF6D00"/>
    <path d="M50 100C50 72.3858 72.3858 50 100 50C127.614 50 150 72.3858 150 100C150 127.614 127.614 150 100 150C72.3858 150 50 127.614 50 100Z" fill="white"/>
    <path d="M85 90C85 87.2386 87.2386 85 90 85H110C112.761 85 115 87.2386 115 90V110C115 112.761 112.761 115 110 115H90C87.2386 115 85 112.761 85 110V90Z" fill="#FF6D00"/>
    <path d="M95 100C95 97.2386 97.2386 95 100 95V95C102.761 95 105 97.2386 105 100V105C105 107.761 102.761 110 100 110V110C97.2386 110 95 107.761 95 105V100Z" fill="white"/>
    <path d="M85 85L95 95M105 105L115 115M85 115L95 105M105 95L115 85" stroke="white" stroke-width="4" stroke-linecap="round"/>
</svg>
